HIERARCHY
ROOT hip
{
  OFFSET 5.70873 43.8894 -1.52928
  CHANNELS 6 Xposition Yposition Zposition Zrotation Xrotation Yrotation
  JOINT abdomen
  {
    OFFSET 0 5.99393 0.287273
    CHANNELS 6 Xposition Yposition Zposition Zrotation Xrotation Yrotation
    JOINT chest
    {
      OFFSET 0 6.65865 -0.856112
      CHANNELS 6 Xposition Yposition Zposition Zrotation Xrotation Yrotation
      JOINT neck
      {
        OFFSET 0 8.65624 -1.42685
        CHANNELS 6 Xposition Yposition Zposition Zrotation Xrotation Yrotation
        JOINT head
        {
          OFFSET 0 3.80999 -0.190247
          CHANNELS 6 Xposition Yposition Zposition Zrotation Xrotation Yrotation
          End Site
          {
            OFFSET 0 0 0
          }
        }
      }
      JOINT rCollar
      {
        OFFSET -1.4963 7.5744 -1.52136
        CHANNELS 6 Xposition Yposition Zposition Zrotation Xrotation Yrotation
        JOINT rShldr
        {
          OFFSET -5.47506 -0.905672 0.485692
          CHANNELS 6 Xposition Yposition Zposition Zrotation Xrotation Yrotation
          JOINT rForeArm
          {
            OFFSET -11.3069 -0.201091 0.618544
            CHANNELS 6 Xposition Yposition Zposition Zrotation Xrotation Yrotation
            JOINT rHand
            {
              OFFSET -9.61414 -0.254739 3.48553
              CHANNELS 6 Xposition Yposition Zposition Zrotation Xrotation Yrotation
              JOINT rThumb1
              {
                OFFSET 0.176263 -0.07068 1.26622
                CHANNELS 6 Xposition Yposition Zposition Zrotation Xrotation Yrotation
                JOINT rThumb2
                {
                  OFFSET -1.04683 -0.546484 1.82182
                  CHANNELS 6 Xposition Yposition Zposition Zrotation Xrotation Yrotation
                  JOINT rThumb3
                  {
                    OFFSET -0.993472 -0.621916 0.655506
                    CHANNELS 6 Xposition Yposition Zposition Zrotation Xrotation Yrotation
                    End Site
                    {
                      OFFSET -0.996134 -0.66263 0.644615
                    }
                  }
                }
              }
              JOINT rIndex1
              {
                OFFSET -2.64253 0.566363 2.4162
                CHANNELS 6 Xposition Yposition Zposition Zrotation Xrotation Yrotation
                JOINT rIndex2
                {
                  OFFSET -1.39394 -0.635138 0.899356
                  CHANNELS 6 Xposition Yposition Zposition Zrotation Xrotation Yrotation
                  JOINT rIndex3
                  {
                    OFFSET -0.622395 -0.856016 0.402182
                    CHANNELS 6 Xposition Yposition Zposition Zrotation Xrotation Yrotation
                    End Site
                    {
                      OFFSET -0.472476 -0.801802 0.34216
                    }
                  }
                }
              }
              JOINT rMid1
              {
                OFFSET -3.20814 0.514427 1.52547
                CHANNELS 6 Xposition Yposition Zposition Zrotation Xrotation Yrotation
                JOINT rMid2
                {
                  OFFSET -1.56545 -0.497974 0.68919
                  CHANNELS 6 Xposition Yposition Zposition Zrotation Xrotation Yrotation
                  JOINT rMid3
                  {
                    OFFSET -0.679943 -1.17582 0.444246
                    CHANNELS 6 Xposition Yposition Zposition Zrotation Xrotation Yrotation
                    End Site
                    {
                      OFFSET -0.343874 -0.941341 0.267611
                    }
                  }
                }
              }
              JOINT rRing1
              {
                OFFSET -3.47877 0.200518 0.597719
                CHANNELS 6 Xposition Yposition Zposition Zrotation Xrotation Yrotation
                JOINT rRing2
                {
                  OFFSET -1.28208 -0.53155 0.44672
                  CHANNELS 6 Xposition Yposition Zposition Zrotation Xrotation Yrotation
                  JOINT rRing3
                  {
                    OFFSET -0.710288 -0.970167 0.4032
                    CHANNELS 6 Xposition Yposition Zposition Zrotation Xrotation Yrotation
                    End Site
                    {
                      OFFSET -0.403228 -0.950952 0.378354
                    }
                  }
                }
              }
              JOINT rPinky1
              {
                OFFSET -3.42483 -0.278904 -0.240415
                CHANNELS 6 Xposition Yposition Zposition Zrotation Xrotation Yrotation
                JOINT rPinky2
                {
                  OFFSET -1.05787 -0.635999 0.156459
                  CHANNELS 6 Xposition Yposition Zposition Zrotation Xrotation Yrotation
                  JOINT rPinky3
                  {
                    OFFSET -0.42815 -0.754232 0.287187
                    CHANNELS 6 Xposition Yposition Zposition Zrotation Xrotation Yrotation
                    End Site
                    {
                      OFFSET -0.235717 -0.725605 0.279416
                    }
                  }
                }
              }
            }
          }
        }
      }
      JOINT lCollar
      {
        OFFSET 1.4963 7.5744 -1.52136
        CHANNELS 6 Xposition Yposition Zposition Zrotation Xrotation Yrotation
        JOINT lShldr
        {
          OFFSET 5.47506 -0.905672 0.485692
          CHANNELS 6 Xposition Yposition Zposition Zrotation Xrotation Yrotation
          JOINT lForeArm
          {
            OFFSET 11.3069 -0.201091 0.618544
            CHANNELS 6 Xposition Yposition Zposition Zrotation Xrotation Yrotation
            JOINT lHand
            {
              OFFSET 9.61414 -0.254739 3.48553
              CHANNELS 6 Xposition Yposition Zposition Zrotation Xrotation Yrotation
              JOINT lThumb1
              {
                OFFSET -0.176263 -0.07068 1.26622
                CHANNELS 6 Xposition Yposition Zposition Zrotation Xrotation Yrotation
                JOINT lThumb2
                {
                  OFFSET 1.04683 -0.546484 1.82182
                  CHANNELS 6 Xposition Yposition Zposition Zrotation Xrotation Yrotation
                  JOINT lThumb3
                  {
                    OFFSET 0.993472 -0.621916 0.655506
                    CHANNELS 6 Xposition Yposition Zposition Zrotation Xrotation Yrotation
                    End Site
                    {
                      OFFSET 0.996134 -0.66263 0.644615
                    }
                  }
                }
              }
              JOINT lIndex1
              {
                OFFSET 2.64253 0.566363 2.4162
                CHANNELS 6 Xposition Yposition Zposition Zrotation Xrotation Yrotation
                JOINT lIndex2
                {
                  OFFSET 1.39394 -0.635138 0.899356
                  CHANNELS 6 Xposition Yposition Zposition Zrotation Xrotation Yrotation
                  JOINT lIndex3
                  {
                    OFFSET 0.622395 -0.856016 0.402182
                    CHANNELS 6 Xposition Yposition Zposition Zrotation Xrotation Yrotation
                    End Site
                    {
                      OFFSET 0.472476 -0.801802 0.34216
                    }
                  }
                }
              }
              JOINT lMid1
              {
                OFFSET 3.20814 0.514427 1.52547
                CHANNELS 6 Xposition Yposition Zposition Zrotation Xrotation Yrotation
                JOINT lMid2
                {
                  OFFSET 1.56545 -0.497974 0.68919
                  CHANNELS 6 Xposition Yposition Zposition Zrotation Xrotation Yrotation
                  JOINT lMid3
                  {
                    OFFSET 0.679943 -1.17582 0.444246
                    CHANNELS 6 Xposition Yposition Zposition Zrotation Xrotation Yrotation
                    End Site
                    {
                      OFFSET 0.343874 -0.941341 0.267611
                    }
                  }
                }
              }
              JOINT lRing1
              {
                OFFSET 3.47877 0.200518 0.597719
                CHANNELS 6 Xposition Yposition Zposition Zrotation Xrotation Yrotation
                JOINT lRing2
                {
                  OFFSET 1.28208 -0.53155 0.44672
                  CHANNELS 6 Xposition Yposition Zposition Zrotation Xrotation Yrotation
                  JOINT lRing3
                  {
                    OFFSET 0.710288 -0.970167 0.4032
                    CHANNELS 6 Xposition Yposition Zposition Zrotation Xrotation Yrotation
                    End Site
                    {
                      OFFSET 0.403228 -0.950952 0.378354
                    }
                  }
                }
              }
              JOINT lPinky1
              {
                OFFSET 3.42483 -0.278904 -0.240415
                CHANNELS 6 Xposition Yposition Zposition Zrotation Xrotation Yrotation
                JOINT lPinky2
                {
                  OFFSET 1.05787 -0.635999 0.156459
                  CHANNELS 6 Xposition Yposition Zposition Zrotation Xrotation Yrotation
                  JOINT lPinky3
                  {
                    OFFSET 0.42815 -0.754232 0.287187
                    CHANNELS 6 Xposition Yposition Zposition Zrotation Xrotation Yrotation
                    End Site
                    {
                      OFFSET 0.235717 -0.725605 0.279416
                    }
                  }
                }
              }
            }
          }
        }
      }
    }
  }
  JOINT rThigh
  {
    OFFSET -4.17848 -1.02486 0.046356
    CHANNELS 6 Xposition Yposition Zposition Zrotation Xrotation Yrotation
    JOINT rShin
    {
      OFFSET 1.27155 -17.465 -0.237699
      CHANNELS 6 Xposition Yposition Zposition Zrotation Xrotation Yrotation
      JOINT rFoot
      {
        OFFSET 0.529163 -17.3815 -1.19582
        CHANNELS 6 Xposition Yposition Zposition Zrotation Xrotation Yrotation
        JOINT rToe
        {
          OFFSET -0.711591 -4.4863 4.0596
          CHANNELS 6 Xposition Yposition Zposition Zrotation Xrotation Yrotation
          End Site
          {
            OFFSET -0.869915 -1.10655 1.99006
          }
        }
      }
    }
  }
  JOINT lThigh
  {
    OFFSET 4.17848 -1.02486 0.046356
    CHANNELS 6 Xposition Yposition Zposition Zrotation Xrotation Yrotation
    JOINT lShin
    {
      OFFSET -1.27155 -17.465 -0.237699
      CHANNELS 6 Xposition Yposition Zposition Zrotation Xrotation Yrotation
      JOINT lFoot
      {
        OFFSET -0.529163 -17.3815 -1.19582
        CHANNELS 6 Xposition Yposition Zposition Zrotation Xrotation Yrotation
        JOINT lToe
        {
          OFFSET 0.711591 -4.4863 4.0596
          CHANNELS 6 Xposition Yposition Zposition Zrotation Xrotation Yrotation
          End Site
          {
            OFFSET 0.869915 -1.10655 1.99006
          }
        }
      }
    }
  }
}
MOTION
Frames:	4
Frame Time:	0.0333333
119.876 44.4207 -80.2914 -10.01 -5.8912 -17.068 1.42109e-014 5.99393 0.287273 5.81224 14.6671 -0.310462 -1.42109e-014 6.65865 -0.856112 12.3478 29.2175 -2.33662 0 8.65624 -1.42685 -1.03796 -18.3764 6.14705 1.42109e-014 3.80999 -0.190247 -4.94504 -2.21188 -0.85386 -1.4963 7.5744 -1.52136 5.7736 -0.0625285 3.95694 -5.47506 -0.905672 0.485692 66.599 22.2534 -7.36231 -11.3069 -0.201091 0.618544 14.7732 -33.3165 97.9264 -9.61414 -0.254739 3.48553 -15.8427 -13.6411 25.8016 0.176263 -0.07068 1.26622 -6.02176 6.46007 -10.2119 -1.04683 -0.546484 1.82182 1.48267 -1.44794 4.28412 -0.993472 -0.621916 0.655506 1.20073 -1.18897 3.48989 -2.64253 0.566363 2.4162 -4.76971 5.24306 -4.19059 -1.39394 -0.635138 0.899356 0.831814 0.220825 -0.123866 -0.622395 -0.856016 0.402182 -1.2009 -0.321823 0.173341 -3.20814 0.514427 1.52547 -3.18619 2.27401 0.45079 -1.56545 -0.497974 0.68919 -2.82694 -0.878641 0.381081 -0.679943 -1.17582 0.444246 -3.60754 -1.12545 0.478253 -3.47877 0.200518 0.597719 -4.3022 -2.16182 0.954878 -1.28208 -0.53155 0.44672 -3.05921 -1.07501 0.53052 -0.710288 -0.970167 0.4032 -3.84462 -1.35603 0.657843 -3.42483 -0.278904 -0.240415 -3.5174 -3.15432 1.74375 -1.05787 -0.635999 0.156459 -5.26474 -2.01876 0.797117 -0.42815 -0.754232 0.287187 -3.59349 -1.36707 0.565918 1.4963 7.5744 -1.52136 11.0622 -0.808658 -2.60584 5.47506 -0.905672 0.485692 -84.0722 33.1457 6.26328 11.3069 -0.201091 0.618544 -34.2338 -17.0452 -108.294 9.61414 -0.254739 3.48553 15.7466 4.08553 -27.3278 -0.176263 -0.07068 1.26622 0.000260392 0.000373938 9.369e-005 1.04683 -0.546484 1.82182 -0.000215189 -0.000293554 6.48357e-005 0.993472 -0.621916 0.655506 -8.89997e-005 5.76527e-005 -5.32941e-005 2.64253 0.566363 2.4162 -1.071e-005 -2.28932e-005 0.000175636 1.39394 -0.635138 0.899356 0.000123641 0.000256934 -2.50915e-006 0.622395 -0.856016 0.402182 -8.90931e-005 1.95855e-005 3.78398e-005 3.20814 0.514427 1.52547 9.8805e-005 0.000221356 7.82369e-005 1.56545 -0.497974 0.68919 -9.35336e-005 -7.66486e-005 0.000134986 0.679943 -1.17582 0.444246 -1.78628e-005 6.76318e-005 -8.89403e-005 3.47877 0.200518 0.597719 2.28083e-006 9.57734e-005 0.000154134 1.28208 -0.53155 0.44672 -1.44741e-005 -4.48988e-006 0.000136771 0.710288 -0.970167 0.4032 -6.13183e-006 1.80323e-005 0.000218907 3.42483 -0.278904 -0.240415 0.000202524 9.71633e-005 9.25051e-005 1.05787 -0.635999 0.156459 -0.00014309 9.02043e-005 1.47785e-005 0.42815 -0.754232 0.287187 4.03608e-005 2.61409e-005 0.000100011 -4.17848 -1.02486 0.046356 8.77399 6.76391 12.9471 1.27155 -17.465 -0.237699 -2.03774 -3.20573 0.620591 0.529163 -17.3815 -1.19582 1.84191 4.08678 -10.2219 -0.711591 -4.4863 4.0596 0.337903 2.45829 -0.0731549 4.17848 -1.02486 0.046356 18.5589 -0.717451 -13.6132 -1.27155 -17.465 -0.237699 0.0678142 2.95099 -0.112512 -0.529163 -17.3815 -1.19582 2.81274 3.29877 -2.31063 0.711591 -4.4863 4.0596 -1.52876 3.33292 -0.0716234 
119.884 44.4208 -80.2896 -9.97313 -5.87722 -17.1697 -1.42109e-014 5.99393 0.287273 5.84879 14.7302 -0.377655 0 6.65865 -0.856112 12.4507 29.3346 -2.49779 0 8.65624 -1.42685 -1.40522 -18.3057 6.17252 0 3.80999 -0.190247 -5.0053 -2.47179 -0.678514 -1.4963 7.5744 -1.52136 5.76974 -0.0621109 3.92671 -5.47506 -0.905672 0.485692 66.5455 22.3744 -7.46611 -11.3069 -0.201091 0.618544 14.4365 -33.3644 98.6129 -9.61414 -0.254739 3.48553 -16.2834 -13.6849 26.2456 0.176263 -0.07068 1.26622 -6.02183 6.46026 -10.2118 -1.04683 -0.546484 1.82182 1.48266 -1.44792 4.28412 -0.993472 -0.621916 0.655506 1.20072 -1.18894 3.48992 -2.64253 0.566363 2.4162 -4.76972 5.24311 -4.1906 -1.39394 -0.635138 0.899356 0.831813 0.220831 -0.123852 -0.622395 -0.856016 0.402182 -1.2009 -0.321805 0.17335 -3.20814 0.514427 1.52547 -3.18621 2.27405 0.450806 -1.56545 -0.497974 0.68919 -2.82694 -0.878616 0.381104 -0.679943 -1.17582 0.444246 -3.60756 -1.12545 0.478274 -3.47877 0.200518 0.597719 -4.30222 -2.1618 0.954864 -1.28208 -0.53155 0.44672 -3.05917 -1.07535 0.530094 -0.710288 -0.970167 0.4032 -3.84467 -1.3557 0.658325 -3.42483 -0.278904 -0.240415 -3.51742 -3.15426 1.74376 -1.05787 -0.635999 0.156459 -5.26477 -2.01866 0.797242 -0.42815 -0.754232 0.287187 -3.59349 -1.3671 0.565866 1.4963 7.5744 -1.52136 11.0186 -0.807255 -2.62819 5.47506 -0.905672 0.485692 -84.017 32.9998 6.09642 11.3069 -0.201091 0.618544 -34.128 -16.7748 -108.409 9.61414 -0.254739 3.48553 15.8489 4.22933 -27.799 -0.176263 -0.07068 1.26622 0.000257257 0.000346217 9.06615e-005 1.04683 -0.546484 1.82182 -0.000213369 -0.000295952 6.96575e-005 0.993472 -0.621916 0.655506 -8.91771e-005 3.25548e-005 -4.48176e-005 2.64253 0.566363 2.4162 -1.16763e-005 -4.86578e-005 0.000191404 1.39394 -0.635138 0.899356 8.63383e-005 0.000191305 1.79385e-005 0.622395 -0.856016 0.402182 -9.83204e-005 7.53961e-006 3.08132e-005 3.20814 0.514427 1.52547 8.59655e-005 0.000171625 9.31955e-005 1.56545 -0.497974 0.68919 -0.000102771 -0.000133809 0.000171781 0.679943 -1.17582 0.444246 -2.27922e-005 5.68931e-005 -8.01482e-005 3.47877 0.200518 0.597719 -1.75464e-005 5.69001e-005 0.000157776 1.28208 -0.53155 0.44672 -2.66247e-005 -1.49321e-005 0.000145696 0.710288 -0.970167 0.4032 -2.90702e-006 1.36736e-005 0.000215089 3.42483 -0.278904 -0.240415 0.000186655 6.92157e-005 0.000101243 1.05787 -0.635999 0.156459 -0.000134382 8.31254e-005 3.16818e-005 0.42815 -0.754232 0.287187 4.8979e-005 1.36744e-005 0.000109449 -4.17848 -1.02486 0.046356 8.71149 6.74693 12.725 1.27155 -17.465 -0.237699 -2.0502 -3.2061 0.628953 0.529163 -17.3815 -1.19582 1.90003 4.1033 -9.92963 -0.711591 -4.4863 4.0596 0.300895 2.19033 -0.064479 4.17848 -1.02486 0.046356 18.4128 -0.679486 -13.4934 -1.27155 -17.465 -0.237699 0.0694912 2.96316 -0.0850854 -0.529163 -17.3815 -1.19582 3.35044 3.27025 -2.43558 0.711591 -4.4863 4.0596 -1.49123 3.11151 -0.0670914 
119.912 44.4314 -80.3037 -9.85097 -5.9598 -17.1309 0 5.99393 0.287273 5.8814 14.8444 -0.486172 0 6.65865 -0.856112 12.5631 29.5488 -2.75316 0 8.65624 -1.42685 -1.83685 -18.5239 5.57093 0 3.80999 -0.190247 -4.7663 -2.66579 -0.986974 -1.4963 7.5744 -1.52136 5.92464 -0.0639005 4.03263 -5.47506 -0.905672 0.485692 66.2718 22.5252 -7.62575 -11.3069 -0.201091 0.618544 14.0783 -33.5486 99.4133 -9.61414 -0.254739 3.48553 -17.1978 -13.519 26.3021 0.176263 -0.07068 1.26622 -6.02184 6.46028 -10.2118 -1.04683 -0.546484 1.82182 1.48266 -1.44792 4.28415 -0.993472 -0.621916 0.655506 1.20068 -1.18888 3.48994 -2.64253 0.566363 2.4162 -4.76973 5.24312 -4.19058 -1.39394 -0.635138 0.899356 0.831827 0.220838 -0.123851 -0.622395 -0.856016 0.402182 -1.20092 -0.321734 0.173377 -3.20814 0.514427 1.52547 -3.1862 2.2741 0.450816 -1.56545 -0.497974 0.68919 -2.82695 -0.8786 0.381098 -0.679943 -1.17582 0.444246 -3.60756 -1.1254 0.478341 -3.47877 0.200518 0.597719 -4.3022 -2.16177 0.954874 -1.28208 -0.53155 0.44672 -3.05924 -1.07476 0.530816 -0.710288 -0.970167 0.4032 -3.84462 -1.35614 0.657692 -3.42483 -0.278904 -0.240415 -3.51743 -3.15418 1.74376 -1.05787 -0.635999 0.156459 -5.26477 -2.01864 0.797293 -0.42815 -0.754232 0.287187 -3.59349 -1.36708 0.565904 1.4963 7.5744 -1.52136 10.7929 -0.792226 -2.66489 5.47506 -0.905672 0.485692 -83.5835 33.0335 5.86169 11.3069 -0.201091 0.618544 -34.0067 -16.545 -108.837 9.61414 -0.254739 3.48553 16.4576 4.65388 -27.9909 -0.176263 -0.07068 1.26622 0.000238888 0.000349974 0.000101297 1.04683 -0.546484 1.82182 -0.000256834 -0.000323712 8.92676e-005 0.993472 -0.621916 0.655506 -9.60815e-005 7.45163e-006 -3.06374e-005 2.64253 0.566363 2.4162 -2.77876e-005 -8.75688e-005 0.000164883 1.39394 -0.635138 0.899356 7.73421e-005 0.000152251 3.81472e-005 0.622395 -0.856016 0.402182 -0.000112609 -4.24744e-005 5.95069e-005 3.20814 0.514427 1.52547 5.31103e-005 7.32923e-005 8.39961e-005 1.56545 -0.497974 0.68919 -0.000106977 -0.000193807 0.000189273 0.679943 -1.17582 0.444246 -9.74815e-006 3.66147e-005 -5.62632e-005 3.47877 0.200518 0.597719 -1.80658e-005 2.70264e-005 0.000145141 1.28208 -0.53155 0.44672 -1.21215e-005 -1.83981e-005 0.000144376 0.710288 -0.970167 0.4032 -7.86494e-006 6.29002e-006 0.000236604 3.42483 -0.278904 -0.240415 0.000198461 5.02733e-005 8.09574e-005 1.05787 -0.635999 0.156459 -0.000159297 5.65094e-005 4.13193e-005 0.42815 -0.754232 0.287187 4.84824e-005 9.21513e-006 0.000134834 -4.17848 -1.02486 0.046356 8.48947 6.74899 12.4472 1.27155 -17.465 -0.237699 -2.03925 -3.15392 0.632182 0.529163 -17.3815 -1.19582 2.16314 3.96897 -9.82257 -0.711591 -4.4863 4.0596 0.261555 1.90506 -0.0554194 4.17848 -1.02486 0.046356 18.022 -0.724242 -13.5571 -1.27155 -17.465 -0.237699 0.0701733 3.1426 -0.053043 -0.529163 -17.3815 -1.19582 4.27987 3.25579 -2.60397 0.711591 -4.4863 4.0596 -1.51225 3.28478 -0.0713377 
119.907 44.4339 -80.3158 -9.78059 -6.00316 -17.0403 2.84217e-014 5.99393 0.287273 5.9231 14.9503 -0.571875 -1.42109e-014 6.65865 -0.856112 12.688 29.7485 -2.96236 -2.84217e-014 8.65624 -1.42685 -2.35214 -18.4177 3.84216 0 3.80999 -0.190247 -4.44623 -3.5708 -1.95796 -1.4963 7.5744 -1.52136 6.00761 -0.0646085 4.07104 -5.47506 -0.905672 0.485692 66.0918 22.4763 -7.64332 -11.3069 -0.201091 0.618544 13.8109 -33.5894 99.9448 -9.61414 -0.254739 3.48553 -17.4251 -13.8821 26.8082 0.176263 -0.07068 1.26622 -6.02215 6.46095 -10.2115 -1.04683 -0.546484 1.82182 1.48263 -1.4479 4.28413 -0.993472 -0.621916 0.655506 1.20076 -1.189 3.4899 -2.64253 0.566363 2.4162 -4.76974 5.24318 -4.19057 -1.39394 -0.635138 0.899356 0.831816 0.220863 -0.12386 -0.622395 -0.856016 0.402182 -1.20087 -0.321859 0.173352 -3.20814 0.514427 1.52547 -3.18626 2.2742 0.450816 -1.56545 -0.497974 0.68919 -2.82695 -0.878584 0.381127 -0.679943 -1.17582 0.444246 -3.60757 -1.12533 0.478383 -3.47877 0.200518 0.597719 -4.30224 -2.16172 0.954883 -1.28208 -0.53155 0.44672 -3.05932 -1.07415 0.531617 -0.710288 -0.970167 0.4032 -3.84454 -1.35681 0.656708 -3.42483 -0.278904 -0.240415 -3.51738 -3.15438 1.74372 -1.05787 -0.635999 0.156459 -5.26478 -2.01851 0.797426 -0.42815 -0.754232 0.287187 -3.59345 -1.36728 0.565579 1.4963 7.5744 -1.52136 10.6618 -0.780336 -2.65427 5.47506 -0.905672 0.485692 -83.2282 33.0649 5.67615 11.3069 -0.201091 0.618544 -33.886 -16.3115 -109.229 9.61414 -0.254739 3.48553 16.4541 4.62982 -28.4758 -0.176263 -0.07068 1.26622 0.000318929 0.000477143 7.86079e-005 1.04683 -0.546484 1.82182 -0.000289511 -0.000373349 0.000123445 0.993472 -0.621916 0.655506 -0.000110617 -3.01561e-005 -2.46426e-005 2.64253 0.566363 2.4162 1.30738e-005 2.79131e-005 0.000182943 1.39394 -0.635138 0.899356 5.75664e-005 9.03028e-005 4.38228e-005 0.622395 -0.856016 0.402182 -0.000123091 -0.000153922 0.000113711 3.20814 0.514427 1.52547 0.000111343 0.000274262 5.61029e-005 1.56545 -0.497974 0.68919 -7.7826e-005 -0.000100068 0.000148772 0.679943 -1.17582 0.444246 -1.57936e-005 1.5362e-006 -3.14089e-005 3.47877 0.200518 0.597719 -6.90555e-005 -6.72325e-005 0.000160054 1.28208 -0.53155 0.44672 -1.60816e-005 -3.81737e-005 0.000150867 0.710288 -0.970167 0.4032 -1.12452e-005 -3.71122e-005 0.000283926 3.42483 -0.278904 -0.240415 0.000161333 -1.73548e-005 7.50559e-005 1.05787 -0.635999 0.156459 -0.000155102 4.51199e-005 6.81912e-005 0.42815 -0.754232 0.287187 5.24388e-005 -6.07291e-006 0.000147995 -4.17848 -1.02486 0.046356 8.3594 6.78777 11.9803 1.27155 -17.465 -0.237699 -2.0208 -3.1779 0.623213 0.529163 -17.3815 -1.19582 2.31684 3.87592 -9.32108 -0.711591 -4.4863 4.0596 0.244543 1.7814 -0.0515479 4.17848 -1.02486 0.046356 17.7276 -0.762304 -14.0214 -1.27155 -17.465 -0.237699 0.0705363 3.24411 -0.0231068 -0.529163 -17.3815 -1.19582 5.1469 3.18026 -2.371 0.711591 -4.4863 4.0596 -1.5187 3.33817 -0.0725586 
